<svg xmlns="http://www.w3.org/2000/svg" xmlns:xlink="http://www.w3.org/1999/xlink" id="Layer_1" x="0" y="0" version="1.1" viewBox="0 0 1300 1300" xml:space="preserve" style="enable-background:new 0 0 1300 1300"><style type="text/css">.st0{fill:url(#SVGID_1_)}.st1{fill:url(#SVGID_2_)}.st2{fill:#fff}</style><linearGradient id="SVGID_1_" x1="-2415.413" x2="-2178.235" y1="1314.398" y2="-30.706" gradientTransform="matrix(-1 0 0 -1 -1645.4375 1292.1875)" gradientUnits="userSpaceOnUse"><stop offset="0" style="stop-color:#faae42"/><stop offset="1" style="stop-color:#ef3e31"/></linearGradient><path d="M301.9,22.8h699c153.5,0,278,124.5,278,278v699c0,153.5-124.5,278-278,278h-699c-153.5,0-278-124.5-278-278	v-699C23.9,147.3,148.4,22.8,301.9,22.8z" class="st0"/><linearGradient id="SVGID_2_" x1="664.062" x2="490.491" y1="43.032" y2="1027.4" gradientUnits="userSpaceOnUse"><stop offset="0" style="stop-color:#e39f3a"/><stop offset="1" style="stop-color:#d33929"/></linearGradient><path d="M1083.2,1049.7c0,0-48.7-81.2-130-81.2c-78.5,0-124.6,81.2-283,81.2c-350.6,0-517.2-291.5-518.5-293.8	c0,0,0,0,0,0L22.9,617.2V300.7c0-153.5,124.5-278,278-278H549l183.5,186.1c0,0,0,0,0,0c414.3,281.6,280.2,591.6,280.2,591.6	S1130.6,933.2,1083.2,1049.7z" class="st1"/><path d="M733.6,209c414.3,281.6,280.3,591.7,280.3,591.7s117.8,132.7,70.4,249.1c0,0-48.7-81.2-130-81.2	c-78.5,0-124.6,81.2-283,81.2c-352,0-518.5-293.8-518.5-293.8c317,208.9,533.4,60.9,533.4,60.9c-143-83.1-446.8-479.3-446.8-479.3	c264.8,225.2,379.1,284.3,379.1,284.3c-68.4-56.3-260-331.7-260-331.7c153.3,155.1,457.6,371,457.6,371	C903,422.5,733.6,209,733.6,209z" class="st2"/></svg>